<svg xmlns="http://www.w3.org/2000/svg" width="1200" height="750" viewBox="0 0 1200 750" preserveAspectRatio="xMidYMid slice">
<defs>
<linearGradient id="bg" x1="0" y1="0" x2="1" y2="1">
<stop offset="0" stop-color="#0e1834"/>
<stop offset="1" stop-color="#1b2b54"/>
</linearGradient>
<radialGradient id="glow" cx="0.72" cy="0.32" r="0.75">
<stop offset="0" stop-color="#2f6bff" stop-opacity="0.40"/>
<stop offset="1" stop-color="#2f6bff" stop-opacity="0"/>
</radialGradient>
</defs>
<rect width="1200" height="750" fill="url(#bg)"/>
<rect width="1200" height="750" fill="url(#glow)"/>
<g stroke="#4d84ff" stroke-opacity="0.13" fill="none">
<line x1="-100" y1="660" x2="1300" y2="200"/>
<line x1="-100" y1="720" x2="1300" y2="330"/>
<line x1="-100" y1="780" x2="1300" y2="460"/>
</g>
<rect x="180" y="200" width="840" height="460" rx="12" fill="#0c132c" stroke="#2f6bff" stroke-opacity="0.6"/>
<g fill="#4d84ff" fill-opacity="0.55">
<rect x="220" y="260" width="150" height="120" rx="6"/>
<rect x="400" y="260" width="150" height="120" rx="6"/>
<rect x="600" y="260" width="150" height="120" rx="6"/>
<rect x="780" y="260" width="150" height="120" rx="6"/>
<rect x="300" y="420" width="150" height="120" rx="6"/>
<rect x="480" y="420" width="150" height="120" rx="6"/>
<rect x="660" y="420" width="150" height="120" rx="6"/>
</g>
<text x="600" y="720" fill="#cdd7ff" font-family="sans-serif" font-size="26" text-anchor="middle" font-weight="700">RETAIL &amp; SHOPPING CENTRES</text>
</svg>