<svg xmlns="http://www.w3.org/2000/svg" width="1200" height="750" viewBox="0 0 1200 750" preserveAspectRatio="xMidYMid slice">
<defs>
<linearGradient id="bg" x1="0" y1="0" x2="1" y2="1">
<stop offset="0" stop-color="#0e1834"/>
<stop offset="1" stop-color="#1b2b54"/>
</linearGradient>
<radialGradient id="glow" cx="0.72" cy="0.32" r="0.75">
<stop offset="0" stop-color="#2f6bff" stop-opacity="0.40"/>
<stop offset="1" stop-color="#2f6bff" stop-opacity="0"/>
</radialGradient>
</defs>
<rect width="1200" height="750" fill="url(#bg)"/>
<rect width="1200" height="750" fill="url(#glow)"/>
<g stroke="#4d84ff" stroke-opacity="0.13" fill="none">
<line x1="-100" y1="660" x2="1300" y2="200"/>
<line x1="-100" y1="720" x2="1300" y2="330"/>
<line x1="-100" y1="780" x2="1300" y2="460"/>
</g>
<rect x="200" y="300" width="170" height="400" fill="#0c132c" stroke="#2f6bff" stroke-opacity="0.5"/>
<rect x="400" y="220" width="200" height="480" fill="#101a38" stroke="#2f6bff" stroke-opacity="0.5"/>
<rect x="640" y="340" width="170" height="360" fill="#0c132c" stroke="#2f6bff" stroke-opacity="0.5"/>
<rect x="840" y="260" width="180" height="440" fill="#111b3d" stroke="#2f6bff" stroke-opacity="0.5"/>
<g fill="#4d84ff" fill-opacity="0.6">
<rect x="216" y="320" width="40" height="90"/><rect x="270" y="320" width="40" height="90"/>
<rect x="420" y="240" width="48" height="90"/><rect x="484" y="240" width="48" height="90"/><rect x="548" y="240" width="48" height="90"/>
<rect x="656" y="360" width="40" height="90"/><rect x="710" y="360" width="40" height="90"/>
<rect x="856" y="280" width="48" height="90"/><rect x="920" y="280" width="48" height="90"/>
</g>
<line x1="500" y1="180" x2="500" y2="120" stroke="#4d84ff" stroke-width="3"/>
<text x="600" y="720" fill="#cdd7ff" font-family="sans-serif" font-size="26" text-anchor="middle" font-weight="700">COMMERCIAL</text>
</svg>