<svg xmlns="http://www.w3.org/2000/svg" width="1200" height="750" viewBox="0 0 1200 750" preserveAspectRatio="xMidYMid slice">
<defs>
<linearGradient id="bg" x1="0" y1="0" x2="1" y2="1">
<stop offset="0" stop-color="#0d1730"/>
<stop offset="1" stop-color="#1a2a50"/>
</linearGradient>
<radialGradient id="glow" cx="0.72" cy="0.32" r="0.75">
<stop offset="0" stop-color="#2f6bff" stop-opacity="0.40"/>
<stop offset="1" stop-color="#2f6bff" stop-opacity="0"/>
</radialGradient>
</defs>
<rect width="1200" height="750" fill="url(#bg)"/>
<rect width="1200" height="750" fill="url(#glow)"/>
<g stroke="#4d84ff" stroke-opacity="0.13" fill="none">
<line x1="-100" y1="660" x2="1300" y2="200"/>
<line x1="-100" y1="720" x2="1300" y2="330"/>
<line x1="-100" y1="780" x2="1300" y2="460"/>
</g>
<!-- cable trays -->
<g stroke="#4d84ff" stroke-opacity="0.55" stroke-width="2">
<rect x="120" y="200" width="960" height="30" fill="none"/>
<rect x="120" y="520" width="960" height="30" fill="none"/>
<rect x="120" y="620" width="960" height="30" fill="none"/>
</g>
<g stroke="#2f6bff" stroke-width="8" stroke-linecap="round" fill="none">
<path d="M160 215 C 320 150, 520 300, 760 215"/>
<path d="M160 535 C 340 470, 540 590, 800 535"/>
<path d="M180 635 C 360 570, 560 690, 820 635"/>
</g>
<g fill="#4d84ff">
<circle cx="600" cy="470" r="10"/>
<circle cx="680" cy="540" r="8"/>
<circle cx="860" cy="650" r="11"/>
</g>
<text x="600" y="720" fill="#cdd7ff" font-family="sans-serif" font-size="26" text-anchor="middle" font-weight="700">CABLE RACKING &amp; ROUTING</text>
</svg>