<svg xmlns="http://www.w3.org/2000/svg" width="1200" height="750" viewBox="0 0 1200 750" preserveAspectRatio="xMidYMid slice">
<defs>
<linearGradient id="bg" x1="0" y1="0" x2="1" y2="1">
<stop offset="0" stop-color="#0f1a36"/>
<stop offset="1" stop-color="#1c2e58"/>
</linearGradient>
<radialGradient id="glow" cx="0.72" cy="0.32" r="0.75">
<stop offset="0" stop-color="#2f6bff" stop-opacity="0.40"/>
<stop offset="1" stop-color="#2f6bff" stop-opacity="0"/>
</radialGradient>
</defs>
<rect width="1200" height="750" fill="url(#bg)"/>
<rect width="1200" height="750" fill="url(#glow)"/>
<g stroke="#4d84ff" stroke-opacity="0.13" fill="none">
<line x1="-100" y1="660" x2="1300" y2="200"/>
<line x1="-100" y1="720" x2="1300" y2="330"/>
<line x1="-100" y1="780" x2="1300" y2="460"/>
</g>
<g stroke="#4d84ff" stroke-opacity="0.35" fill="none">
<rect x="160" y="260" width="180" height="300"/>
<rect x="520" y="180" width="180" height="380"/>
<rect x="880" y="240" width="180" height="320"/>
</g>
<g fill="#4d84ff" fill-opacity="0.9">
<rect x="176" y="276" width="50" height="130"/>
<rect x="240" y="276" width="50" height="130"/>
<rect x="536" y="196" width="50" height="130"/>
<rect x="600" y="196" width="50" height="130"/>
<rect x="896" y="256" width="50" height="130"/>
<rect x="960" y="256" width="50" height="130"/>
</g>
<line x1="600" y1="120" x2="200" y2="120" stroke="#4d84ff" stroke-opacity="0.6" stroke-width="3"/>
<line x1="200" y1="120" x2="200" y2="260"/>
<line x1="600" y1="120" x2="600" y2="180"/>
<line x1="600" y1="120" x2="970" y2="120" stroke="#4d84ff" stroke-opacity="0.6" stroke-width="3"/>
<line x1="970" y1="120" x2="970" y2="240"/>
<text x="600" y="700" fill="#cdd7ff" font-family="sans-serif" font-size="26" text-anchor="middle" font-weight="700">LIGHTING SYSTEMS</text>
</svg>