<svg xmlns="http://www.w3.org/2000/svg" width="1200" height="750" viewBox="0 0 1200 750" preserveAspectRatio="xMidYMid slice">
<defs>
<linearGradient id="bg" x1="0" y1="0" x2="1" y2="1">
<stop offset="0" stop-color="#0e1834"/>
<stop offset="1" stop-color="#1b2b53"/>
</linearGradient>
<radialGradient id="glow" cx="0.72" cy="0.32" r="0.75">
<stop offset="0" stop-color="#2f6bff" stop-opacity="0.40"/>
<stop offset="1" stop-color="#2f6bff" stop-opacity="0"/>
</radialGradient>
</defs>
<rect width="1200" height="750" fill="url(#bg)"/>
<rect width="1200" height="750" fill="url(#glow)"/>
<g stroke="#4d84ff" stroke-opacity="0.13" fill="none">
<line x1="-100" y1="660" x2="1300" y2="200"/>
<line x1="-100" y1="720" x2="1300" y2="330"/>
<line x1="-100" y1="780" x2="1300" y2="460"/>
</g>
<g fill="none" stroke="#4d84ff" stroke-width="2">
<rect x="300" y="200" width="600" height="340" rx="10"/>
<rect x="330" y="250" width="200" height="120" rx="6"/>
<rect x="560" y="250" width="200" height="120" rx="6"/>
<rect x="330" y="400" width="200" height="90" rx="6"/>
</g>
<g fill="#4d84ff" fill-opacity="0.6">
<circle cx="380" cy="300" r="16"/>
<circle cx="610" cy="300" r="16"/>
</g>
<line x1="600" y1="540" x2="600" y2="600" stroke="#4d84ff" stroke-width="3"/>
<line x1="600" y1="600" x2="560" y2="620" stroke="#4d84ff" stroke-width="3"/>
<text x="600" y="700" fill="#cdd7ff" font-family="sans-serif" font-size="26" text-anchor="middle" font-weight="700">MAINTENANCE &amp; SERVICING</text>
</svg>